<svg width="22" height="22" viewBox="0 0 22 22" fill="none" xmlns="http://www.w3.org/2000/svg">
<path fill-rule="evenodd" clip-rule="evenodd" d="M11 22C17.0751 22 22 17.0751 22 11C22 4.92487 17.0751 0 11 0C4.92487 0 0 4.92487 0 11C0 17.0751 4.92487 22 11 22ZM11.1533 10.3826C10.2939 10.3826 5.86667 7.87204 5.86667 7.87204V7.48C5.86667 6.99424 6.26091 6.6 6.74755 6.6H15.559C16.0461 6.6 16.4403 6.99424 16.4403 7.48L16.4333 7.92C16.4333 7.92 12.0539 10.3826 11.1533 10.3826ZM16.4333 9.24C16.4333 9.24 12.0953 11.5926 11.1533 11.5926C10.2939 11.5926 5.87327 9.24 5.87371 9.24L5.86667 14.52C5.86667 15.0058 6.26135 15.4 6.74755 15.4H15.559C16.0461 15.4 16.4403 15.0058 16.4403 14.52L16.4333 9.24Z" fill="#F9F9F9"/>
</svg>
