<svg width="36" height="36" viewBox="0 0 36 36" fill="none" xmlns="http://www.w3.org/2000/svg">
<mask id="mask0_533_1677" style="mask-type:luminance" maskUnits="userSpaceOnUse" x="0" y="0" width="36" height="36">
<path fill-rule="evenodd" clip-rule="evenodd" d="M0 18C0 8.05888 8.05888 0 18 0C27.9411 0 36 8.05888 36 18C36 27.9411 27.9411 36 18 36C8.05888 36 0 27.9411 0 18Z" fill="white"/>
</mask>
<g mask="url(#mask0_533_1677)">
<path fill-rule="evenodd" clip-rule="evenodd" d="M0 18C0 8.05888 8.05888 0 18 0C27.9411 0 36 8.05888 36 18C36 27.9411 27.9411 36 18 36C8.05888 36 0 27.9411 0 18Z" fill="white"/>
<path fill-rule="evenodd" clip-rule="evenodd" d="M18.0009 8.3999C15.3937 8.3999 15.0665 8.4113 14.0425 8.4579C13.0204 8.5047 12.3228 8.66651 11.7124 8.90391C11.081 9.14911 10.5454 9.47711 10.0118 10.0109C9.47781 10.5445 9.1498 11.0801 8.9038 11.7113C8.6658 12.3219 8.50379 13.0198 8.45779 14.0414C8.41199 15.0654 8.39999 15.3928 8.39999 18C8.39999 20.6072 8.41159 20.9334 8.45799 21.9574C8.50499 22.9795 8.6668 23.6771 8.904 24.2875C9.1494 24.9189 9.47741 25.4545 10.0112 25.9881C10.5446 26.5221 11.0802 26.8509 11.7112 27.0961C12.322 27.3335 13.0198 27.4953 14.0417 27.5421C15.0657 27.5887 15.3927 27.6001 17.9997 27.6001C20.6071 27.6001 20.9333 27.5887 21.9573 27.5421C22.9793 27.4953 23.6778 27.3335 24.2886 27.0961C24.9198 26.8509 25.4546 26.5221 25.988 25.9881C26.522 25.4545 26.85 24.9189 27.096 24.2877C27.332 23.6771 27.494 22.9793 27.542 21.9576C27.588 20.9336 27.6 20.6072 27.6 18C27.6 15.3928 27.588 15.0656 27.542 14.0416C27.494 13.0196 27.332 12.3219 27.096 11.7115C26.85 11.0801 26.522 10.5445 25.988 10.0109C25.454 9.47691 24.92 9.14891 24.288 8.90391C23.676 8.66651 22.9779 8.5047 21.9559 8.4579C20.9319 8.4113 20.6059 8.3999 17.9979 8.3999H18.0009ZM17.1397 10.13C17.3953 10.1296 17.6805 10.13 18.0009 10.13C20.5641 10.13 20.8679 10.1392 21.8801 10.1852C22.8162 10.228 23.3242 10.3844 23.6626 10.5158C24.1106 10.6898 24.43 10.8978 24.7658 11.2338C25.1018 11.5699 25.3098 11.8899 25.4842 12.3379C25.6156 12.6759 25.7722 13.1839 25.8148 14.1199C25.8608 15.1319 25.8708 15.4359 25.8708 17.9979C25.8708 20.5599 25.8608 20.8639 25.8148 21.876C25.772 22.812 25.6156 23.32 25.4842 23.658C25.3102 24.106 25.1018 24.425 24.7658 24.7608C24.4298 25.0968 24.1108 25.3048 23.6626 25.4788C23.3246 25.6108 22.8162 25.7668 21.8801 25.8096C20.8681 25.8556 20.5641 25.8656 18.0009 25.8656C15.4375 25.8656 15.1337 25.8556 14.1217 25.8096C13.1857 25.7664 12.6776 25.61 12.339 25.4786C11.891 25.3046 11.571 25.0966 11.235 24.7606C10.899 24.4246 10.691 24.1054 10.5166 23.6572C10.3852 23.3192 10.2286 22.8112 10.186 21.8752C10.14 20.8631 10.1308 20.5591 10.1308 17.9955C10.1308 15.4319 10.14 15.1295 10.186 14.1175C10.2288 13.1815 10.3852 12.6735 10.5166 12.3351C10.6906 11.8871 10.899 11.5671 11.235 11.231C11.571 10.895 11.891 10.687 12.339 10.5126C12.6774 10.3806 13.1857 10.2246 14.1217 10.1816C15.0073 10.1416 15.3505 10.1296 17.1397 10.1276V10.13ZM23.1253 11.724C22.4893 11.724 21.9733 12.2394 21.9733 12.8756C21.9733 13.5116 22.4893 14.0276 23.1253 14.0276C23.7614 14.0276 24.2774 13.5116 24.2774 12.8756C24.2774 12.2396 23.7614 11.7236 23.1253 11.7236V11.724ZM18.0009 13.0703C15.2783 13.0703 13.0708 15.2777 13.0708 18.0004C13.0708 20.723 15.2783 22.9294 18.0009 22.9294C20.7235 22.9294 22.9301 20.723 22.9301 18.0004C22.9301 15.2777 20.7233 13.0703 18.0007 13.0703H18.0009ZM18.0009 14.7998C19.7681 14.7998 21.2009 16.2324 21.2009 17.9998C21.2009 19.7671 19.7681 21.1999 18.0009 21.1999C16.2335 21.1999 14.8009 19.7671 14.8009 17.9998C14.8009 16.2324 16.2335 14.7998 18.0009 14.7998Z" fill="#9B9B9B"/>
</g>
</svg>
