 <svg
                width="22"
                height="22"
                viewBox="0 0 22 22"
                fill="none"
                xmlns="http://www.w3.org/2000/svg"
              >
                <path
                  fill-rule="evenodd"
                  clip-rule="evenodd"
                  d="M11 0C4.92487 0 0 4.92487 0 11C0 17.0751 4.92487 22 11 22C17.0751 22 22 17.0751 22 11C22 4.92487 17.0751 0 11 0ZM5.28073 9.11072H7.77357V16.6007H5.28073V9.11072ZM7.93779 6.79374C7.92161 6.05935 7.39645 5.5 6.54366 5.5C5.69088 5.5 5.13336 6.05935 5.13336 6.79374C5.13336 7.51291 5.6744 8.08837 6.5113 8.08837H6.52723C7.39645 8.08837 7.93779 7.51291 7.93779 6.79374ZM13.8935 8.93481C15.5339 8.93481 16.7637 10.0055 16.7637 12.3061L16.7636 16.6006H14.2709V12.5935C14.2709 11.587 13.9101 10.9002 13.0077 10.9002C12.319 10.9002 11.9088 11.3632 11.7286 11.8104C11.6627 11.9707 11.6466 12.194 11.6466 12.4178V16.6008H9.15342C9.15342 16.6008 9.18627 9.81371 9.15342 9.11089H11.6466V10.1718C11.9774 9.66179 12.57 8.93481 13.8935 8.93481Z"
                  fill="#F9F9F9"
                />
              </svg>