<svg width="24" height="24" viewBox="0 0 24 24" fill="none" xmlns="http://www.w3.org/2000/svg">
<path fill-rule="evenodd" clip-rule="evenodd" d="M11.9938 21.8281H11.9897C10.331 21.8276 8.70125 21.4114 7.25371 20.6218L2 22L3.40598 16.8645C2.5387 15.3615 2.08235 13.6566 2.08309 11.9099C2.08526 6.44562 6.53112 2 11.9937 2C14.6449 2.00114 17.1332 3.03324 19.0043 4.90654C20.8754 6.77974 21.9053 9.26968 21.9043 11.9177C21.9021 17.3807 17.458 21.8259 11.9938 21.8281Z" fill="white"/>
<path fill-rule="evenodd" clip-rule="evenodd" d="M7.4971 18.8276L7.79789 19.0061C9.0626 19.7566 10.5123 20.1537 11.9904 20.1543H11.9938C16.5339 20.1543 20.2291 16.459 20.2309 11.9171C20.2318 9.71603 19.3758 7.6465 17.8206 6.08949C16.2654 4.53248 14.1972 3.67459 11.997 3.67383C7.45339 3.67383 3.75815 7.36874 3.75635 11.9104C3.75571 13.4668 4.1912 14.9826 5.01576 16.2941L5.21162 16.6058L4.37948 19.6454L7.4971 18.8276Z" fill="#2C2C2C"/>
<path fill-rule="evenodd" clip-rule="evenodd" d="M16.9867 14.2742C16.9248 14.1709 16.7597 14.109 16.5121 13.985C16.2645 13.861 15.047 13.262 14.82 13.1793C14.593 13.0967 14.4279 13.0554 14.2628 13.3033C14.0978 13.5511 13.6232 14.109 13.4787 14.2742C13.3343 14.4395 13.1898 14.4602 12.9423 14.3362C12.6947 14.2123 11.8967 13.9508 10.9509 13.1071C10.2147 12.4505 9.71774 11.6396 9.57329 11.3917C9.42884 11.1438 9.55789 11.0098 9.68186 10.8863C9.79327 10.7753 9.92951 10.597 10.0533 10.4525C10.1771 10.3079 10.2184 10.2045 10.3009 10.0394C10.3835 9.87406 10.3422 9.7295 10.2803 9.60554C10.2184 9.48159 9.72315 8.26269 9.5168 7.76686C9.31578 7.284 9.11164 7.34941 8.95965 7.34178C8.81537 7.33453 8.65011 7.33301 8.48504 7.33301C8.31997 7.33301 8.05167 7.39499 7.8247 7.6429C7.59772 7.89082 6.95801 8.48992 6.95801 9.70872C6.95801 10.9276 7.84532 12.1051 7.96915 12.2704C8.09295 12.4357 9.71528 14.9369 12.1994 16.0095C12.7902 16.2646 13.2514 16.417 13.6111 16.5311C14.2043 16.7196 14.7442 16.693 15.1708 16.6292C15.6466 16.5582 16.6359 16.0302 16.8423 15.4518C17.0485 14.8733 17.0485 14.3775 16.9867 14.2742Z" fill="#DADADA"/>
</svg>
